# xmcd
#
# Track frame offsets:
#	183
#	14823
#	30238
#	51183
#	64748
#	79215
#	97635
#	116393
#	135733
#	151823
#	166720
#	168958
#
# Disc length: 2531 seconds
#
# Revision: 0
# Processed by: cddbd v1.4PL0 Copyright (c) Steve Scherf et al.
# Submitted via: EasyCDDAExtractor 4.5.0.2
#
DISCID=8509e10c
DTITLE=BENNY B (Featuring DJ DADDY K) - L'ALBUM
DYEAR=1989
DGENRE=RAP
TTITLE0=(01) Vous Etes Fou !
TTITLE1=(02) D.J D'Enfert
TTITLE2=(03) Dis-Moi Bebe
TTITLE3=(04) Do You Speak Martien ?
TTITLE4=(05) Colere
TTITLE5=(06) Qu'est-Ce Qu'On Fait Maintenant ?
TTITLE6=(07) Ecoute ! C'Est Du Rap Francais
TTITLE7=(08) Elle
TTITLE8=(09) Yo ! Home Boys
TTITLE9=(10) Vous Etes Fous ! (Spanish and US Mix)
TTITLE10=(11) BONUS TRACK 1
TTITLE11=(12) BONUS TRACK 2
EXTD=
EXTT0=
EXTT1=
EXTT2=
EXTT3=
EXTT4=
EXTT5=
EXTT6=
EXTT7=
EXTT8=
EXTT9=
EXTT10=
EXTT11=
PLAYORDER=
